<?xml version="1.0" encoding="UTF-8"?>
<svg xmlns="http://www.w3.org/2000/svg" height="800" width="1000">
    <rect fill="#999999" height="376" stroke="none" width="376" x="312" y="272"/>
    <line fill="none" stroke="#ff0000" x1="499" x2="312" y1="28" y2="272"/>
    <line fill="none" stroke="#ff0000" x1="498" x2="688" y1="28" y2="272"/>
    <rect fill="#cc0000" height="139" stroke="none" width="80" x="558" y="509"/>
    <circle cx="574" cy="586" fill="#000000" r="3" stroke="none"/>
    <ellipse cx="414" cy="376" fill="#ff66ff" rx="59" ry="48" stroke="none"/>
    <rect fill="#ff3333" height="103" stroke="none" width="103" x="543" y="333"/>
    <rect fill="#ff6633" height="80" stroke="none" width="112" x="370" y="512"/>
    <line fill="none" stroke="#000000" x1="428" x2="428" y1="512" y2="592"/>
    <line fill="none" stroke="#000000" x1="370" x2="482" y1="552" y2="552"/>
    <rect fill="#ff0033" height="109" stroke="none" width="33" x="587" y="120"/>
    <polyline fill="none"
        points="602,118 600,111 605,111 606,112 602,112 603,113 600,115 601,116 599,117 598,117 599,118 599,114 597,116 598,114 598,111 598,111 596,110 597,109 595,108 596,107 596,106 596,105 597,106 598,104 600,101 600,101 601,102 602,100 603,101 604,101 604,107 602,107 601,108 598,108 597,106 596,103 595,103 596,102 594,101 595,89 596,77 597,75 598,77 598,76 598,75 599,76 601,76 603,76 604,77 605,77 605,78 605,79 606,80 606,81 607,81 607,88 603,88 601,88 601,89 600,90 599,90 596,90 596,90 597,88 595,87 594,86 595,78 595,78 595,74 595,71 595,70 595,70 595,69 595,68 596,69 597,69 599,69 600,69 602,69 603,69 604,69 606,69 607,69 607,70 607,72 605,73 604,73 603,74 602,76 599,77 601,78 599,79 598,79 597,79 596,79 595,79 594,79 595,77 595,76 593,77 594,75 594,74 594,73 594,72 592,73 593,71 593,70 591,71 592,51 595,53 601,54 601,61 600,63 592,65 " stroke="#666666"/>
    <polyline fill="none"
        points="19,608 19,609 17,610 16,612 17,614 13,617 15,619 15,621 13,624 14,627 14,629 14,632 14,634 14,635 14,636 15,637 16,637 19,639 20,640 22,641 24,642 25,643 26,644 28,644 29,644 31,644 32,644 33,644 35,644 36,642 36,641 36,640 36,639 36,628 37,626 37,626 37,622 37,621 37,619 37,617 37,615 37,613 37,611 37,611 37,610 35,611 36,603 36,599 36,599 34,597 35,595 33,597 34,595 34,594 35,596 39,598 44,599 45,600 46,601 48,601 49,601 50,601 51,601 52,601 53,597 54,597 55,596 57,593 58,593 58,592 58,591 58,593 58,594 58,595 58,596 58,597 58,600 58,603 58,604 58,606 58,607 58,608 58,610 58,611 58,612 58,613 58,617 58,620 56,621 57,622 57,623 57,624 57,627 57,628 57,629 57,630 57,631 57,633 58,634 58,635 59,635 61,637 62,637 63,637 64,638 66,638 67,639 68,639 68,637 68,636 69,637 69,635 69,634 70,635 70,633 70,632 70,631 70,630 68,631 " stroke="#ff3333"/>
    <polyline fill="none"
        points="89,631 88,631 87,631 86,631 85,631 84,631 83,631 82,631 81,631 80,631 81,632 81,634 81,636 81,637 81,638 81,639 81,640 82,640 83,640 84,640 86,640 87,640 88,640 89,640 89,638 89,637 89,636 90,635 90,634 90,633 90,635 90,636 91,638 92,640 92,641 92,642 93,642 94,642 94,643 95,643 97,643 98,643 99,643 101,637 101,638 103,633 103,634 103,633 103,632 101,633 100,633 99,633 98,633 100,634 102,637 105,639 106,640 107,641 107,642 108,642 108,643 109,644 110,644 111,644 111,642 113,633 114,634 115,632 116,630 116,628 116,628 116,625 116,625 116,624 116,626 118,627 122,628 124,628 127,629 129,629 129,630 131,631 131,632 132,632 132,633 132,635 132,636 132,637 132,638 132,640 132,641 132,642 128,643 128,643 127,643 124,643 122,643 122,643 121,643 120,643 119,643 122,643 127,643 135,643 140,643 145,643 149,643 151,643 153,643 154,643 156,643 157,643 158,643 158,641 158,640 158,639 158,634 158,635 158,630 158,631 158,628 156,630 157,628 157,627 155,628 156,626 156,625 154,626 155,624 153,625 152,625 151,625 146,625 143,625 144,625 141,625 143,626 143,627 141,627 142,628 142,629 142,631 142,632 142,633 143,636 147,638 149,640 151,640 152,641 153,641 154,641 155,641 155,642 156,642 157,643 158,643 159,643 159,641 159,640 160,639 160,638 160,637 160,636 160,635 160,634 160,633 160,632 162,629 165,625 168,620 175,614 178,613 179,616 180,614 180,616 180,617 180,620 180,622 180,623 180,624 180,625 180,626 180,627 180,628 180,631 180,633 180,635 180,637 180,639 180,640 180,641 180,642 180,643 180,641 180,636 180,635 180,633 180,633 181,632 181,631 181,630 181,629 182,630 183,630 184,630 185,630 185,631 186,631 186,632 186,633 186,634 187,635 187,636 188,636 188,637 188,638 189,638 189,639 189,640 " stroke="#ff3333"/>
    <circle cx="101" cy="625" fill="none" r="4" stroke="#ff3333"/>
</svg>
